<svg width="24" height="24" viewBox="0 0 24 24" fill="none" xmlns="http://www.w3.org/2000/svg">
<path opacity="0.4" d="M19.1 20.3C18.9 20.3 18.7 20.2 18.6 20.1C18.3 19.8 18.3 19.3 18.6 19C20.3 17.3 21.2 15 21.2 12.5C21.2 7.4 17.1 3.3 12 3.3C6.89995 3.3 2.79995 7.4 2.79995 12.5C2.79995 14.9 3.69995 17.2 5.39995 19C5.69995 19.3 5.69995 19.8 5.39995 20.1C5.09995 20.4 4.59995 20.4 4.29995 20.1C2.29995 18.1 1.19995 15.4 1.19995 12.6C1.19995 6.6 6.09995 1.7 12 1.7C17.9 1.7 22.7999 6.5 22.7999 12.5C22.7999 15.3 21.7 18 19.7 20C19.5 20.2 19.3 20.3 19.1 20.3Z" fill="#273C92"/>
<path d="M12 22C14.1539 22 15.9 20.2539 15.9 18.1C15.9 15.9461 14.1539 14.2 12 14.2C9.84606 14.2 8.09998 15.9461 8.09998 18.1C8.09998 20.2539 9.84606 22 12 22Z" fill="#273C92"/>
<path d="M16 8.5C14.9 8.5 14 9.4 14 10.5V11.3C14 12 14.6 12.5 15.2 12.5H16C17.1 12.5 18 11.6 18 10.5C18 9.4 17.1 8.5 16 8.5Z" fill="#273C92"/>
</svg>
