<svg width="25" height="24" viewBox="0 0 25 24" fill="none" xmlns="http://www.w3.org/2000/svg">
<path opacity="0.4" d="M4.67038 15.2998L9.20038 19.8298C11.0604 21.6898 14.0804 21.6898 15.9504 19.8298L20.3404 15.4398C22.2004 13.5798 22.2004 10.5598 20.3404 8.68981L15.8004 4.1698C14.8504 3.2198 13.5404 2.7098 12.2004 2.7798L7.20038 3.0198C5.20038 3.1098 3.61038 4.6998 3.51038 6.6898L3.27038 11.6898C3.21038 13.0398 3.72038 14.3498 4.67038 15.2998Z" fill="#292D32"/>
<path d="M9.99914 12.3801C11.5897 12.3801 12.8791 11.0907 12.8791 9.50012C12.8791 7.90954 11.5897 6.62012 9.99914 6.62012C8.40856 6.62012 7.11914 7.90954 7.11914 9.50012C7.11914 11.0907 8.40856 12.3801 9.99914 12.3801Z" fill="#292D32"/>
</svg>
